<svg width="225" height="151" viewBox="0 0 225 151" fill="none" xmlns="http://www.w3.org/2000/svg">
<g id="LOGO 02">
<g id="Group 1">
<g id="Clip path group">
<path id="Vector" d="M116.301 39.2599C128.843 46.4324 140.625 52.8499 152.787 59.6449C152.787 67.5724 152.787 75.4999 152.787 83.4274C152.027 101.925 165.33 104.945 177.492 101.925C193.455 98.1499 203.336 80.4074 199.536 63.0424C196.875 50.9624 189.654 41.9024 179.772 34.7299C165.71 24.5374 149.747 20.0074 132.644 17.7424C108.319 14.7224 83.9951 16.6099 60.8109 26.0474C50.5491 30.1999 41.0474 36.2399 34.2062 44.9224C21.2839 60.7774 21.664 82.2949 35.3464 94.7524C42.5677 101.547 51.3093 103.435 60.8109 101.925C68.0322 100.792 72.593 94.7524 72.593 86.8249C72.593 77.7649 72.593 68.7049 72.593 59.2674C84.7552 52.4724 96.5373 46.0549 109.08 38.8824C109.08 46.0549 109.08 52.0949 109.08 57.7574C109.08 71.7249 109.08 85.6924 108.699 99.6599C108.319 114.382 99.9579 123.442 85.1353 125.33C65.3718 127.595 47.5086 123.442 31.5457 110.985C9.8819 93.9974 7.22142 62.2874 25.4647 40.0149C37.2468 26.4249 53.2096 18.8749 70.3126 14.3449C104.139 5.66239 137.585 6.41739 170.27 19.6299C183.573 24.9149 194.975 33.2199 202.956 45.2999C219.299 69.8374 212.078 100.792 186.613 115.892C171.411 124.952 154.688 128.35 136.824 124.952C124.662 122.687 116.681 114.76 116.301 102.302C115.541 86.4474 115.921 70.5924 115.921 54.7374C115.921 50.5849 116.301 45.6774 116.301 39.2599Z" fill="white"/>
</g>
<g id="Clip path group_2">
<path id="Vector_2" d="M112.5 141.562C49.4088 141.562 7.22128 115.515 7.22128 72.48C7.22128 38.505 47.8885 3.3975 112.5 3.3975C177.492 3.3975 217.779 38.8825 217.779 72.48C217.779 115.893 175.971 141.562 112.5 141.562ZM112.5 0C43.3277 0 0 33.975 0 75.5C0 117.025 45.228 151 112.5 151C179.772 151 225 117.025 225 75.5C225 33.975 182.052 0 112.5 0Z" fill="white"/>
</g>
</g>
</g>
</svg>
