<svg width="79" height="27" viewBox="0 0 79 27" fill="none" xmlns="http://www.w3.org/2000/svg">
<mask id="mask0_87_208" style="mask-type:luminance" maskUnits="userSpaceOnUse" x="-44" y="0" width="123" height="27">
<path d="M78.9999 0.199997H-43.8501V26.3383H78.9999V0.199997Z" fill="white"/>
</mask>
<g mask="url(#mask0_87_208)">
<path d="M55.0833 5.23165C56.913 5.23165 58.7427 5.16631 60.507 5.297C60.8338 5.297 61.2912 5.81976 61.4219 6.21184C63.1209 9.67516 64.7545 13.0731 66.4535 16.5365C66.5842 16.7979 66.7149 17.0592 66.9109 17.386C67.1069 16.9939 67.2376 16.7979 67.3683 16.6018C69.0673 13.1385 70.701 9.74051 72.3999 6.27719C72.7267 5.55838 73.2494 5.23165 74.0336 5.23165C75.6019 5.23165 77.2355 5.23165 78.8692 5.23165C78.8692 5.62373 78.9345 5.88511 78.9345 6.14649C78.9345 10.8514 78.9345 15.5563 78.9345 20.1958C78.9345 21.1107 78.6078 21.4374 77.693 21.4374C76.19 21.3721 74.6217 21.4374 72.9881 21.4374V12.6157C72.9227 12.6157 72.8574 12.5504 72.792 12.5504C72.6613 12.7464 72.4653 12.9425 72.3999 13.2038C71.2237 15.6216 70.0475 18.0394 68.9366 20.5226C68.6752 21.1107 68.2832 21.3067 67.6297 21.3721C65.9307 21.6334 65.0159 20.98 64.3624 19.3463C63.5783 17.1899 62.4674 15.2296 61.4872 13.1385C61.3565 12.9425 61.2258 12.6811 60.8991 12.5504V21.3067C59.0041 21.3067 57.2397 21.3067 55.4754 21.3067C55.2794 21.3067 54.9526 20.8493 54.9526 20.5879C54.9526 15.5563 54.9526 10.59 54.9526 5.55838C55.018 5.49304 55.018 5.42769 55.0833 5.23165Z" fill="white"/>
</g>
<mask id="mask1_87_208" style="mask-type:luminance" maskUnits="userSpaceOnUse" x="-44" y="0" width="123" height="27">
<path d="M78.9999 0.199997H-43.8501V26.3383H78.9999V0.199997Z" fill="white"/>
</mask>
<g mask="url(#mask1_87_208)">
<path d="M24.8938 5.23159V8.69491C24.5671 8.69491 24.3057 8.76026 23.9789 8.76026C18.7513 8.76026 13.589 8.76026 8.36131 8.76026C6.85836 8.76026 6.53163 9.08699 6.53163 10.5246C6.53163 12.4196 6.53163 14.2493 6.53163 16.1443C6.53163 17.3206 6.85836 17.6473 8.03458 17.6473C11.2365 17.6473 14.4385 17.6473 17.6404 17.6473C18.7513 17.6473 19.078 17.3206 19.078 16.1443C19.078 15.6869 19.078 15.2295 19.078 14.6414H11.1058V11.8315C11.4326 11.8315 11.6939 11.7662 11.9553 11.7662C15.8761 11.7662 19.7968 11.7662 23.7176 11.7662C24.5671 11.7662 24.9591 11.9622 24.8938 12.9424C24.7631 14.7067 24.8938 16.4711 24.6977 18.2354C24.5017 20.1958 23.3255 21.2413 21.3651 21.3066C16.2681 21.372 11.2365 21.372 6.13955 21.372C5.68213 21.372 5.15937 21.3066 4.70195 21.176C2.3495 20.6532 1.10793 19.4116 0.977241 17.0592C0.846549 14.576 0.781203 12.0275 0.977241 9.54441C1.17328 6.99593 2.80692 5.42763 5.42075 5.29694C7.83855 5.16624 10.2563 5.16624 12.6088 5.16624C16.2681 5.16624 19.9275 5.16624 23.5215 5.16624C23.9789 5.16624 24.371 5.23159 24.8938 5.23159Z" fill="white"/>
</g>
<mask id="mask2_87_208" style="mask-type:luminance" maskUnits="userSpaceOnUse" x="-44" y="0" width="123" height="27">
<path d="M78.9999 0.199997H-43.8501V26.3383H78.9999V0.199997Z" fill="white"/>
</mask>
<g mask="url(#mask2_87_208)">
<path d="M26.3967 5.16624C28.2918 5.16624 29.9907 5.10089 31.6897 5.23158C31.9511 5.23158 32.2778 5.8197 32.4085 6.21177C33.3234 8.95629 34.2382 11.7008 35.0877 14.4453C35.1531 14.7067 35.2838 14.9028 35.4144 15.3602C35.6105 14.9681 35.6758 14.7067 35.7412 14.5107C36.656 11.7008 37.6362 8.8256 38.4857 6.01573C38.7471 5.16624 39.3352 5.23158 39.9886 5.16624C40.6421 5.16624 40.9688 5.36228 41.2302 6.01573C42.1451 8.8256 43.0599 11.6355 43.9747 14.4453C44.0401 14.7067 44.1708 14.9028 44.3015 15.4255C44.4975 14.9028 44.6282 14.7067 44.6935 14.4453C45.543 11.7008 46.4579 9.02164 47.3074 6.27712C47.5687 5.49297 47.9608 5.16624 48.8103 5.23158C50.0519 5.29693 51.2935 5.23158 52.535 5.23158C52.7964 5.23158 52.9924 5.23158 53.3845 5.29693C52.9271 6.73454 52.4697 8.04145 52.0776 9.34837C50.836 13.0731 49.5945 16.7978 48.4182 20.5225C48.2222 21.2413 47.8301 21.5027 47.1113 21.4373C46.1311 21.372 45.151 21.372 44.1054 21.4373C43.452 21.4373 43.1252 21.2413 42.9292 20.5878C42.0797 18.0393 41.1649 15.4909 40.3154 12.9424C40.25 12.681 40.054 12.4196 39.858 11.9622C39.5966 12.4196 39.4659 12.681 39.3352 12.9424C38.4203 15.4909 37.5709 18.0393 36.7214 20.5878C36.5253 21.2413 36.1332 21.4373 35.4798 21.4373C34.4343 21.372 33.4541 21.4373 32.4085 21.372C32.0818 21.372 31.6244 21.1106 31.4937 20.8492C29.9254 15.6216 28.1611 10.4592 26.3967 5.16624Z" fill="white"/>
</g>
</svg>
