<svg width="24" height="15" viewBox="0 0 24 15" fill="none" xmlns="http://www.w3.org/2000/svg">
<path id="Vector" d="M1.2 2.4H22.8C23.1183 2.4 23.4235 2.27357 23.6485 2.04853C23.8736 1.82348 24 1.51826 24 1.2C24 0.88174 23.8736 0.576516 23.6485 0.351472C23.4235 0.126428 23.1183 0 22.8 0H1.2C0.88174 0 0.576515 0.126428 0.351472 0.351472C0.126428 0.576516 0 0.88174 0 1.2C0 1.51826 0.126428 1.82348 0.351472 2.04853C0.576515 2.27357 0.88174 2.4 1.2 2.4ZM22.8 12H1.2C0.88174 12 0.576515 12.1264 0.351472 12.3515C0.126428 12.5765 0 12.8817 0 13.2C0 13.5183 0.126428 13.8235 0.351472 14.0485C0.576515 14.2736 0.88174 14.4 1.2 14.4H22.8C23.1183 14.4 23.4235 14.2736 23.6485 14.0485C23.8736 13.8235 24 13.5183 24 13.2C24 12.8817 23.8736 12.5765 23.6485 12.3515C23.4235 12.1264 23.1183 12 22.8 12ZM22.8 6H1.2C0.88174 6 0.576515 6.12643 0.351472 6.35147C0.126428 6.57652 0 6.88174 0 7.2C0 7.51826 0.126428 7.82348 0.351472 8.04853C0.576515 8.27357 0.88174 8.4 1.2 8.4H22.8C23.1183 8.4 23.4235 8.27357 23.6485 8.04853C23.8736 7.82348 24 7.51826 24 7.2C24 6.88174 23.8736 6.57652 23.6485 6.35147C23.4235 6.12643 23.1183 6 22.8 6Z" fill="white"/>
</svg>
